<svg xmlns="http://www.w3.org/2000/svg" width="640" height="360" viewBox="0 0 640 360" role="img" aria-labelledby="title desc">
  <title id="title">Micro-mobility shared-control preview</title>
  <desc id="desc">A compact mobility interface showing rider skill, automation level, and well-being.</desc>
  <rect width="640" height="360" rx="18" fill="#05070b"/>
  <rect x="58" y="42" width="524" height="276" rx="14" fill="#0b111c" stroke="#223047" stroke-width="3"/>
  <rect x="58" y="42" width="524" height="52" rx="14" fill="#111927"/>
  <circle cx="92" cy="68" r="8" fill="#ffb020"/>
  <circle cx="118" cy="68" r="8" fill="#ffd166"/>
  <circle cx="144" cy="68" r="8" fill="#2f80ff"/>
  <text x="182" y="74" font-family="Arial, sans-serif" font-size="17" font-weight="700" fill="#ffffff">Shared Control</text>
  <g transform="translate(88 124)">
    <rect width="132" height="64" rx="8" fill="#111927"/>
    <rect x="154" width="132" height="64" rx="8" fill="#111927"/>
    <rect x="308" width="132" height="64" rx="8" fill="#111927"/>
    <text x="18" y="28" font-family="Arial, sans-serif" font-size="13" fill="#b9c4d3">Rider skill</text>
    <text x="18" y="50" font-family="Arial, sans-serif" font-size="21" font-weight="700" fill="#83c5ff">High</text>
    <text x="172" y="28" font-family="Arial, sans-serif" font-size="13" fill="#b9c4d3">Automation</text>
    <text x="172" y="50" font-family="Arial, sans-serif" font-size="21" font-weight="700" fill="#ffb020">Level</text>
    <text x="326" y="28" font-family="Arial, sans-serif" font-size="13" fill="#b9c4d3">Well-being</text>
    <text x="326" y="50" font-family="Arial, sans-serif" font-size="21" font-weight="700" fill="#f5f7fb">Score</text>
  </g>
  <g transform="translate(88 220)" stroke-linecap="round">
    <path d="M0 0h438" stroke="#223047" stroke-width="3"/>
    <path d="M0 34h438" stroke="#223047" stroke-width="3"/>
    <path d="M0 68h438" stroke="#223047" stroke-width="3"/>
    <path d="M18 17h128" stroke="#2f80ff" stroke-width="8"/>
    <path d="M270 17h78" stroke="#ffb020" stroke-width="8"/>
    <path d="M18 51h96" stroke="#83c5ff" stroke-width="8"/>
    <path d="M270 51h114" stroke="#f5f7fb" stroke-width="8"/>
  </g>
</svg>
